<svg width="560" height="560" viewBox="0 0 560 560" fill="none" xmlns="http://www.w3.org/2000/svg">
<path d="M216.273 450.157V439.969H334.018C459.556 439.969 454.015 440.02 460.582 438.768C473.461 436.311 486.106 429.302 495.408 419.465C505.624 408.662 511.555 395.648 513.202 380.426C513.581 376.939 513.348 368.291 512.78 364.682C509.436 343.42 496.443 325.378 477.539 315.748C475.644 314.782 472.998 313.574 471.66 313.063C470.322 312.551 468.65 311.817 467.944 311.433C465.422 310.058 463.534 307.307 462.969 304.181C462.691 302.654 462.74 302.064 463.477 297.995C467.233 277.271 465.834 256.886 459.311 237.261L457.771 232.629L458.129 230.38C459.637 220.895 459.112 208.85 456.499 192.975C456.144 190.814 455.852 188.922 455.852 188.773C455.852 188.089 461.264 195.589 464.263 200.429C476.259 219.791 482.516 237.832 485.207 260.814C485.735 265.325 485.81 267.205 485.801 275.765C485.793 283.257 485.687 286.458 485.343 289.393C485.095 291.504 484.824 293.945 484.74 294.818L484.586 296.406L486.891 297.545C499.447 303.743 511.475 314.551 519.642 326.971C527.545 338.988 532.282 352.522 533.529 366.645C533.975 371.711 533.712 382.205 533.027 386.654C530.07 405.832 521.483 422.579 507.721 436.006C495.663 447.768 480.631 455.69 464.323 458.876C456.36 460.432 463.998 460.345 334.75 460.345H216.273V450.157Z" fill="url(#paint0_linear_502_21)"/>
<path d="M366.461 391.069L348.578 372.827L347.077 374.465C346.25 375.366 342.959 379.013 339.763 382.57C326.429 397.409 326.416 397.422 325.803 397.226C325.237 397.047 294.092 384.143 294.036 384.065C294.021 384.045 295.074 381.439 296.38 378.278L298.681 372.567L299.447 372.886C301.057 373.556 322.765 382.598 322.953 382.521C323.064 382.475 324.867 380.531 326.96 378.202C329.053 375.874 332.362 372.206 334.314 370.053C336.376 367.777 337.763 366.041 337.624 365.908C337.493 365.783 335.841 365.023 333.952 364.221C332.063 363.419 328.319 361.811 325.631 360.648C307.215 352.672 310.449 354.189 307.259 352.709C307.796 351.354 308.362 349.17 309.654 346.029L312.002 340.318L316.505 342.361C318.983 343.486 326.772 347.035 333.817 350.251C345.875 355.754 346.65 356.069 347.055 355.638C347.29 355.386 355.191 346.01 364.613 334.803C374.034 323.596 385.55 309.901 390.204 304.37C400.743 291.848 400.201 292.511 403.998 287.434C412.291 276.341 417.816 268.062 423.178 258.691C431.084 244.871 434.945 235.278 436.751 224.963C437.321 221.708 437.402 210.643 436.887 206.193C435.512 194.293 433.421 183.68 430.136 171.923C426.268 158.087 419.671 140.185 414.92 130.641C411.437 123.645 405.851 114.512 405.311 114.633C405.147 114.669 405.138 114.373 405.138 114.221C405.138 113.838 410.923 99.8645 411.194 99.5922C411.316 99.471 412.718 101.436 414.312 103.958C423.802 118.984 428.6 128.999 435.605 148.401C442.879 168.552 447.265 186.808 449.3 205.399C449.755 209.559 449.756 222.07 449.303 225.246C448.858 228.361 447.835 232.945 446.715 236.849C442.337 252.116 429.479 274.7 412.72 296.557L411.003 298.797L411.739 300.261C413.241 303.243 415.386 310.349 416.336 315.488C417.319 320.81 417.471 328.417 416.751 336.258C415.647 348.259 412.168 357.349 399.58 381.113C394.861 390.02 384.629 408.993 384.412 409.238C384.376 409.278 376.298 401.102 366.463 391.069H366.461ZM383.46 384.751C389.211 374.092 391.019 370.657 394.568 363.648C399.97 352.979 402.741 345.627 403.992 338.64C404.663 334.898 404.668 322.785 404.001 319.455C403.515 317.031 402.101 311.837 401.76 311.228C401.638 311.009 400.381 312.377 398.159 315.144C388.789 326.818 372.93 345.486 359.879 360.207C358.331 361.953 357.065 363.466 357.065 363.57C357.065 363.786 381.152 388.392 381.361 388.39C381.437 388.39 382.381 386.752 383.46 384.751ZM361.049 236.355C361.049 236.355 357.97 236.035 355.165 235.163C355.4 234.527 359.395 225.252 359.668 225.313C366.25 226.753 371.957 226.312 377.435 223.939C388.901 218.972 395.388 206.433 392.849 194.148C391.44 187.33 387.227 181.035 381.594 177.33L379.481 176.073L381.528 171.393C382.632 168.866 383.494 166.651 383.547 166.514C383.684 166.163 386.809 167.965 389.228 169.792C401.067 178.735 406.523 194.172 402.899 208.474C399.162 223.222 387.496 233.935 372.525 236.368C369.601 236.843 361.619 236.47 361.049 236.355Z" fill="url(#paint1_linear_502_21)"/>
<path d="M142.997 460.214C114.263 460.103 102.831 459.974 101.394 459.746C96.8819 459.027 93.4096 458.321 90.1681 457.462C66.4464 451.176 46.2377 434.677 35.2477 412.623C29.0423 400.169 26.25 388.211 26.25 374.089C26.25 367.668 26.4869 364.725 27.4535 359.137C31.6513 334.868 46.6172 313.152 68.1337 300.109C77.4592 294.455 90.023 290.05 100.915 288.617L102.152 288.454L102.294 287.078C102.371 286.321 102.504 284.868 102.589 283.849C104.788 257.403 117.155 230.518 136.084 211.029C149.283 197.44 163.697 187.941 180.929 181.474C194.795 176.27 208.073 173.864 222.9 173.865C230.716 173.866 235.698 174.238 242.315 175.311L244.428 175.653L246.692 173.509C256.443 164.275 267.399 156.38 278.503 150.586C281.892 148.818 291.088 144.522 291.484 144.522C291.557 144.522 290.605 145.623 289.371 146.969C281.309 155.766 273.993 167.795 270.057 178.725C269.324 180.76 269.294 180.797 266.383 183.223C264.767 184.569 261.173 187.901 258.396 190.627C252.709 196.209 252.035 196.645 248.787 196.843C247.29 196.935 245.762 196.767 242.546 196.159C234.52 194.639 231.95 194.406 223.297 194.417C216.666 194.425 214.677 194.521 211.116 195.005C200.135 196.494 190.571 199.182 181.561 203.311C151.31 217.173 129.615 245.227 123.984 277.76C123.094 282.901 122.726 287.048 122.563 293.779L122.394 300.798L121.529 302.557C120.439 304.772 118.359 306.741 116.251 307.549C115.066 308.004 113.836 308.18 110.639 308.353C103.604 308.733 99.1145 309.443 93.7339 311.023C83.4093 314.057 74.189 319.485 66.4359 327.095C64.5699 328.926 62.1807 331.496 61.1266 332.806C55.1395 340.247 50.2469 350.359 48.1871 359.551C46.059 369.045 46.0645 379.142 48.2027 388.776C51.8781 405.333 62.512 420.374 77.1098 429.661C82.8651 433.323 89.5304 436.184 96.2724 437.885C103.803 439.786 101.091 439.681 145.506 439.788C173.511 439.855 187.305 439.725 188.826 439.588C205.57 439.585 217.959 441.209 230.503 435.038C236.448 432.113 240.594 426.208 244.284 420.698C248.235 414.797 250.532 407.901 252.873 401.193C254.417 396.767 255.365 392.152 256.443 387.589C257.224 384.28 258.54 377.606 258.54 377.606C258.54 377.606 265.345 380.395 267.052 381.069C268.783 381.752 279.552 386.185 281.05 386.764C282.687 387.399 293.755 392.207 296.053 393.236C299.765 394.797 305.634 397.514 309.218 399.034C308.839 399.772 300.054 409.768 295.547 415.198C291.304 420.311 287.503 425.804 282.961 430.65C277.088 436.914 271.204 443.382 264.08 448.171C256.258 453.428 249.656 458.101 238.451 460.096C235.624 460.599 229.156 460.546 142.997 460.214ZM280.22 378.436C272.883 375.395 262.509 371.089 257.167 368.868L247.452 364.831L247.593 363.77C247.671 363.186 248.149 358.839 248.655 354.108C249.162 349.379 249.637 344.972 249.712 344.317C249.786 343.663 250.144 340.388 250.507 337.04C250.869 333.692 251.237 330.321 251.323 329.549L251.48 328.145L221.683 328.193C202.47 328.226 191.855 328.15 191.799 327.983C191.691 327.658 195.564 315.159 198.873 305.153C205.023 286.558 211.381 271.62 216.5 263.738C218.917 260.016 220.272 258.299 223.158 255.303C231.131 247.024 239.145 242.882 261.231 235.623L268.262 233.313L269.639 227.356C270.397 224.079 271.473 219.552 272.032 217.295C272.591 215.039 273.537 210.931 274.135 208.166C278.379 188.566 280.513 181.496 284.747 173.003C292.575 157.301 302.691 146.371 317.816 137.275C324.595 133.198 331.418 129.862 344.935 124.014C347.187 123.039 350.931 121.406 353.255 120.384C371.809 112.227 392.144 104.724 405.82 100.989C410.279 99.7711 411.355 99.2117 411.231 99.7168C411.181 99.9269 409.796 103.659 408.198 107.536L405.295 114.586L403.709 115.024C400.393 115.94 386.089 120.815 379.714 123.2C369.345 127.081 366.524 128.257 345.727 137.377C320.477 148.45 309.96 156.169 300.651 170.459C294.639 179.689 291.808 187.095 288.164 203.138C286.116 212.149 284.321 219.872 283.029 225.235C281.226 232.71 279.465 240.796 277.181 252.094C276.828 253.841 276.057 257.592 275.468 260.431C274.878 263.268 274.107 267.019 273.755 268.766C273.401 270.513 272.448 275.157 271.636 279.087C270.823 283.017 269.87 287.661 269.516 289.407C269.163 291.154 268.392 294.904 267.805 297.743C267.216 300.581 266.2 305.523 265.546 308.725C264.893 311.927 264.195 315.32 263.996 316.267C263.648 317.919 263.769 318.649 264.389 318.649C264.642 318.649 269.263 320.739 283.606 327.343L287.654 329.207L288.058 328.228C293.625 314.734 300.047 301.717 304.066 295.781C307.198 291.152 315.001 282.67 319.033 279.509C320.762 278.154 322.148 277.437 325.124 276.361C327.223 275.602 327.683 275.539 332.189 275.39C334.841 275.301 337.011 275.309 337.011 275.406C337.011 275.57 332.125 285.185 328.954 291.259C328.195 292.715 326.531 295.93 325.258 298.404C323.984 300.879 322.142 304.451 321.163 306.343C320.184 308.235 318.4 311.689 317.201 314.018C316 316.346 314.157 319.919 313.105 321.956C312.052 323.994 310.057 327.865 308.669 330.556C307.281 333.249 305.962 335.807 305.737 336.241C305.512 336.674 305.413 337.112 305.518 337.215C305.623 337.318 307.135 338.062 308.876 338.866C310.617 339.671 312.362 340.456 312.552 340.583C312.465 340.779 307.592 352.335 307.301 352.719C307.274 352.756 305.716 352.119 303.839 351.306C301.962 350.493 298.94 349.193 297.125 348.417L293.823 347.006L289.464 347.773C281.159 349.234 280.215 349.384 279.853 349.299C279.579 349.234 279.839 348.324 280.896 345.642C282.163 342.425 282.258 342.047 281.855 341.821C281.387 341.558 272.984 337.891 267.214 335.431C265.363 334.643 263.729 333.997 263.582 333.997C263.435 333.997 263.305 334.444 263.293 334.989C263.28 335.535 263.226 336.28 263.17 336.643C263.115 337.007 262.705 340.759 262.257 344.98C261.24 354.577 261.212 354.834 261.047 355.961L260.913 356.887L279.614 364.637C289.898 368.899 298.472 372.485 298.667 372.606C298.944 372.778 298.552 373.965 296.856 378.089C295.666 380.983 294.632 383.499 294.559 383.681C294.487 383.864 294.232 384.002 293.992 383.99C293.754 383.977 287.557 381.479 280.22 378.437V378.436ZM251.26 315.434C251.296 315.383 253.017 306.826 255.087 296.419C257.156 286.012 259.261 275.533 259.765 273.132C260.267 270.73 261.032 267.039 261.464 264.928C261.896 262.818 262.672 259.126 263.188 256.725C263.704 254.323 264.307 251.465 264.527 250.374C264.747 249.282 264.988 248.181 265.063 247.927C265.172 247.552 264.293 247.78 260.36 249.146C250.319 252.634 242.526 256.098 238.01 259.08C233.754 261.89 229.199 266.779 226.262 271.689C223.659 276.039 219.385 285.335 216.898 292.053C215.683 295.337 211.453 307.868 209.852 312.926L208.942 315.804L230.068 315.666C241.688 315.591 251.225 315.487 251.26 315.435V315.434ZM353.52 234.527C341.961 229.953 333.572 220.647 330.578 209.079C328.139 199.654 329.363 190.15 334.172 181.173C335.661 178.396 337.596 175.912 340.564 172.969C350.937 162.688 366.376 159.488 380.123 164.773C381.472 165.292 382.767 165.819 383.143 166.054L383.96 166.568L381.924 171.419C380.837 174.009 379.948 176.192 379.9 176.25C379.852 176.308 378.882 175.93 377.745 175.409C374.256 173.811 370.5 173.016 366.594 173.048C363.484 173.074 360.975 173.464 358.419 174.324C349.087 177.463 342.46 184.96 340.551 194.537C339.986 197.378 340.039 202.116 340.671 205.011C341.539 208.983 343.394 213.034 345.691 215.972C348.751 219.885 354.147 223.65 358.611 224.984C359.233 225.17 359.779 225.31 359.739 225.405C359.698 225.501 358.708 227.831 357.626 230.478C356.543 233.124 355.591 235.283 355.513 235.274C355.434 235.266 354.537 234.93 353.52 234.527Z" fill="url(#paint2_linear_502_21)"/>
<defs>
<linearGradient id="paint0_linear_502_21" x1="475.269" y1="373.32" x2="396.197" y2="257.874" gradientUnits="userSpaceOnUse">
<stop stop-color="#35B8FA"/>
<stop offset="1" stop-color="#AC2DFE"/>
</linearGradient>
<linearGradient id="paint1_linear_502_21" x1="609.365" y1="319.792" x2="407.202" y2="238.463" gradientUnits="userSpaceOnUse">
<stop stop-color="#35B8FA"/>
<stop offset="1" stop-color="#AC2DFE"/>
</linearGradient>
<linearGradient id="paint2_linear_502_21" x1="130.303" y1="273.784" x2="263.685" y2="268.571" gradientUnits="userSpaceOnUse">
<stop stop-color="#35B8FA"/>
<stop offset="1" stop-color="#AC2DFE"/>
</linearGradient>
</defs>
</svg>
