<?xml version="1.0" standalone="no"?>
<!DOCTYPE svg PUBLIC "-//W3C//DTD SVG 20010904//EN"
 "http://www.w3.org/TR/2001/REC-SVG-20010904/DTD/svg10.dtd">
<svg version="1.0" xmlns="http://www.w3.org/2000/svg"
 width="700.000000pt" height="700.000000pt" viewBox="0 0 700.000000 700.000000"
 preserveAspectRatio="xMidYMid meet">
<metadata>
Created by potrace 1.14, written by Peter Selinger 2001-2017
</metadata>
<g transform="translate(0.000000,700.000000) scale(0.100000,-0.100000)"
fill="#000000" stroke="none">
<path d="M5095 5745 c-5 -2 -64 -20 -130 -41 -115 -35 -436 -157 -547 -208
-29 -13 -81 -36 -115 -50 -340 -142 -543 -288 -668 -481 -102 -155 -148 -278
-199 -525 -3 -14 -7 -35 -10 -47 -8 -31 -15 -63 -21 -93 -3 -14 -16 -68 -29
-120 l-23 -95 -139 -48 c-338 -116 -446 -202 -569 -452 -35 -71 -86 -193 -114
-270 -68 -190 -135 -405 -128 -411 3 -3 170 -6 371 -6 l366 -1 0 -21 c0 -12
-5 -60 -10 -106 -20 -165 -32 -278 -34 -313 -1 -14 38 -34 179 -93 99 -41 194
-81 212 -89 17 -8 34 -15 38 -15 4 0 21 -6 38 -14 18 -8 84 -36 147 -61 63
-26 139 -58 168 -71 29 -13 58 -24 66 -24 7 0 16 -3 19 -6 4 -4 31 -17 61 -29
l55 -22 42 46 c23 25 77 84 120 131 42 47 86 95 97 107 l19 22 222 -225 c123
-124 227 -222 231 -217 22 23 279 518 320 616 53 127 69 184 78 277 16 188 0
309 -62 460 -5 13 35 79 83 136 25 30 135 201 186 289 103 178 152 291 185
426 16 70 19 110 16 239 -2 85 -7 171 -10 190 -4 19 -11 58 -16 85 -5 28 -11
61 -14 75 -9 53 -49 201 -87 324 -79 250 -179 475 -296 664 -44 70 -59 80 -98
67z m7 -227 c106 -164 231 -485 298 -763 16 -66 31 -136 34 -155 3 -19 8 -44
10 -55 22 -107 27 -298 10 -381 -41 -194 -162 -424 -387 -734 -33 -45 -204
-255 -242 -296 -5 -7 -17 -20 -25 -30 -8 -11 -87 -105 -175 -209 -88 -105
-189 -225 -224 -267 -58 -69 -66 -75 -88 -67 -45 17 -485 218 -492 224 -3 4
150 304 315 621 41 77 74 144 74 147 0 13 -135 -2 -175 -18 -50 -21 -183 -157
-241 -245 -44 -69 -106 -191 -163 -322 -19 -43 -37 -78 -41 -78 -4 0 -55 22
-113 49 -57 28 -121 57 -141 65 -41 17 -41 19 -22 113 8 38 17 80 20 93 30
154 173 839 191 918 14 56 27 113 29 125 9 43 57 243 76 319 60 228 191 421
366 539 32 22 104 63 158 91 86 43 145 70 314 144 17 8 47 20 65 28 89 39 208
84 361 136 180 62 174 62 208 8z m-1792 -1630 c0 -7 -7 -41 -15 -74 -14 -61
-91 -431 -101 -489 -4 -25 -19 -97 -39 -195 -2 -8 -4 -22 -4 -30 -3 -41 -9
-42 -275 -46 -196 -2 -256 0 -256 9 0 7 18 67 40 134 110 337 196 486 329 571
50 32 281 131 309 132 6 0 12 -6 12 -12z m1732 -851 c14 -59 16 -228 4 -296
-12 -64 -77 -214 -158 -370 -45 -86 -88 -168 -95 -183 -8 -15 -18 -30 -22 -32
-8 -6 -301 285 -301 299 0 7 85 112 101 125 11 9 263 305 354 417 50 61 93
108 96 104 4 -3 13 -32 21 -64z m-1623 -264 l109 -47 -14 -39 c-8 -22 -14 -43
-14 -47 0 -4 38 0 85 8 99 16 48 32 412 -125 189 -81 221 -98 213 -112 -5 -9
-47 -56 -92 -105 l-84 -89 -34 15 c-65 29 -105 46 -230 96 -69 28 -210 87
-315 131 -211 89 -194 72 -182 181 4 30 9 83 13 118 4 34 11 62 15 62 5 0 58
-21 118 -47z"/>
<path d="M4461 4954 c-151 -40 -274 -160 -321 -310 -74 -242 53 -492 295 -581
68 -25 205 -25 282 -2 280 87 412 394 280 656 -60 120 -177 212 -307 242 -63
15 -165 12 -229 -5z m254 -145 c123 -46 207 -181 199 -320 -16 -285 -357 -418
-563 -219 -128 124 -130 339 -4 466 42 42 112 82 167 94 48 11 142 1 201 -21z"/>
<path d="M3539 5144 c-164 -80 -295 -168 -422 -284 l-57 -52 -82 8 c-191 18
-394 7 -543 -31 -397 -101 -727 -344 -938 -691 -118 -194 -192 -412 -212 -619
-8 -82 -9 -85 -38 -85 -43 0 -213 -52 -294 -90 -117 -54 -213 -122 -304 -212
-143 -144 -240 -313 -290 -506 -43 -170 -38 -395 14 -574 85 -288 337 -565
619 -679 170 -70 189 -72 578 -78 195 -3 1210 -5 2255 -5 2064 2 1945 -1 2116
55 304 100 572 367 673 671 40 119 54 199 55 327 5 311 -98 564 -320 788 -73
74 -183 156 -253 188 l-38 18 6 66 c8 77 8 328 1 386 -39 313 -147 593 -322
838 -24 33 -43 55 -43 50 0 -5 7 -56 16 -114 18 -117 24 -306 13 -377 -5 -36
-2 -64 17 -122 22 -70 43 -163 59 -255 20 -115 11 -365 -18 -525 -9 -51 40
-138 78 -140 21 -1 172 -83 221 -120 243 -183 364 -481 321 -789 -47 -335
-348 -633 -687 -680 -36 -5 -566 -9 -1179 -10 l-1115 -2 59 63 c33 35 62 65
65 68 4 3 40 48 82 100 42 52 110 136 152 185 41 50 76 92 76 95 0 4 -37 22
-195 91 -60 26 -322 135 -382 158 l-52 20 -11 -57 c-62 -308 -159 -518 -289
-625 -29 -24 -76 -47 -126 -64 l-80 -26 -681 -2 c-375 -1 -713 2 -751 6 -221
24 -449 169 -577 366 -94 145 -128 263 -129 443 0 150 16 226 78 355 131 275
380 444 695 470 144 11 165 36 174 205 6 115 7 129 27 230 71 360 346 704 692
869 183 87 351 122 562 117 83 -2 161 -6 175 -10 14 -4 52 -9 85 -12 70 -7 72
-5 207 121 76 70 90 89 118 157 17 43 57 118 88 167 52 82 72 108 135 179 11
12 18 22 16 22 -3 0 -48 -21 -100 -46z"/>
</g>
</svg>
